<svg width="34" height="28" viewBox="0 0 34 28" fill="none" xmlns="http://www.w3.org/2000/svg">
<path d="M13.48 1.23132C9.25883 0.558382 6.12353 1.35368 4.07412 3.61721C2.02471 5.88073 1 9.21485 1 13.6196V27H15V13.6196H7.05647C6.72 11.4172 7.02588 9.62779 7.97412 8.25132C8.95294 6.87485 10.5435 6.27838 12.7459 6.46191L13.48 1.23132Z" fill="#CBD5E1" fill-opacity="0.1" stroke="#CBD5E1" stroke-width="2" stroke-linejoin="round"/>
<path d="M31.48 1.23132C27.2588 0.558382 24.1235 1.35368 22.0741 3.61721C20.0247 5.88073 19 9.21485 19 13.6196V27H33V13.6196H25.0565C24.72 11.4172 25.0259 9.62779 25.9741 8.25132C26.9529 6.87485 28.5435 6.27838 30.7459 6.46191L31.48 1.23132Z" fill="#CBD5E1" fill-opacity="0.1" stroke="#CBD5E1" stroke-width="2" stroke-linejoin="round"/>
</svg>
